<mxfile host="app.diagrams.net" modified="2022-02-09T01:49:43.213Z" agent="5.0 (Macintosh; Intel Mac OS X 10_15_7) AppleWebKit/537.36 (KHTML, like Gecko) Chrome/96.0.4664.110 Safari/537.36" etag="PfYwOlx_kuqk-im31Rjy" version="16.5.4" type="github">
  <diagram id="C5RBs43oDa-KdzZeNtuy" name="Page-1">
    <mxGraphModel dx="728" dy="402" grid="1" gridSize="10" guides="1" tooltips="1" connect="1" arrows="1" fold="1" page="1" pageScale="1" pageWidth="827" pageHeight="1169" math="0" shadow="0">
      <root>
        <mxCell id="WIyWlLk6GJQsqaUBKTNV-0" />
        <mxCell id="WIyWlLk6GJQsqaUBKTNV-1" parent="WIyWlLk6GJQsqaUBKTNV-0" />
        <mxCell id="F_i0khBpR1WR50BoNfie-0" value="" style="ellipse;whiteSpace=wrap;html=1;" vertex="1" parent="WIyWlLk6GJQsqaUBKTNV-1">
          <mxGeometry x="140" y="270" width="70" height="90" as="geometry" />
        </mxCell>
        <mxCell id="F_i0khBpR1WR50BoNfie-1" value="" style="endArrow=classic;html=1;rounded=0;" edge="1" parent="WIyWlLk6GJQsqaUBKTNV-1">
          <mxGeometry width="50" height="50" relative="1" as="geometry">
            <mxPoint x="210" y="314.5" as="sourcePoint" />
            <mxPoint x="250" y="315" as="targetPoint" />
          </mxGeometry>
        </mxCell>
        <mxCell id="F_i0khBpR1WR50BoNfie-10" value="Data" style="text;html=1;strokeColor=none;fillColor=none;align=center;verticalAlign=middle;whiteSpace=wrap;rounded=0;" vertex="1" parent="WIyWlLk6GJQsqaUBKTNV-1">
          <mxGeometry x="145" y="300" width="60" height="30" as="geometry" />
        </mxCell>
        <mxCell id="F_i0khBpR1WR50BoNfie-15" value="" style="ellipse;whiteSpace=wrap;html=1;" vertex="1" parent="WIyWlLk6GJQsqaUBKTNV-1">
          <mxGeometry x="470" y="270" width="70" height="90" as="geometry" />
        </mxCell>
        <mxCell id="F_i0khBpR1WR50BoNfie-16" value="" style="ellipse;whiteSpace=wrap;html=1;" vertex="1" parent="WIyWlLk6GJQsqaUBKTNV-1">
          <mxGeometry x="360" y="270" width="70" height="90" as="geometry" />
        </mxCell>
        <mxCell id="F_i0khBpR1WR50BoNfie-17" value="" style="ellipse;whiteSpace=wrap;html=1;" vertex="1" parent="WIyWlLk6GJQsqaUBKTNV-1">
          <mxGeometry x="580" y="270" width="70" height="90" as="geometry" />
        </mxCell>
        <mxCell id="F_i0khBpR1WR50BoNfie-19" value="" style="endArrow=classic;html=1;rounded=0;" edge="1" parent="WIyWlLk6GJQsqaUBKTNV-1">
          <mxGeometry width="50" height="50" relative="1" as="geometry">
            <mxPoint x="320" y="314.5" as="sourcePoint" />
            <mxPoint x="360" y="315" as="targetPoint" />
          </mxGeometry>
        </mxCell>
        <mxCell id="F_i0khBpR1WR50BoNfie-20" value="" style="endArrow=classic;html=1;rounded=0;" edge="1" parent="WIyWlLk6GJQsqaUBKTNV-1">
          <mxGeometry width="50" height="50" relative="1" as="geometry">
            <mxPoint x="430" y="314.5" as="sourcePoint" />
            <mxPoint x="470" y="315" as="targetPoint" />
          </mxGeometry>
        </mxCell>
        <mxCell id="F_i0khBpR1WR50BoNfie-21" value="" style="endArrow=classic;html=1;rounded=0;" edge="1" parent="WIyWlLk6GJQsqaUBKTNV-1">
          <mxGeometry width="50" height="50" relative="1" as="geometry">
            <mxPoint x="540" y="314.5" as="sourcePoint" />
            <mxPoint x="580" y="315" as="targetPoint" />
          </mxGeometry>
        </mxCell>
        <mxCell id="F_i0khBpR1WR50BoNfie-18" value="" style="ellipse;whiteSpace=wrap;html=1;" vertex="1" parent="WIyWlLk6GJQsqaUBKTNV-1">
          <mxGeometry x="250" y="270" width="70" height="90" as="geometry" />
        </mxCell>
        <mxCell id="F_i0khBpR1WR50BoNfie-11" value="Fully Connect" style="text;html=1;strokeColor=none;fillColor=none;align=center;verticalAlign=middle;whiteSpace=wrap;rounded=0;" vertex="1" parent="WIyWlLk6GJQsqaUBKTNV-1">
          <mxGeometry x="255" y="300" width="60" height="30" as="geometry" />
        </mxCell>
        <mxCell id="F_i0khBpR1WR50BoNfie-12" value="Activation" style="text;html=1;strokeColor=none;fillColor=none;align=center;verticalAlign=middle;whiteSpace=wrap;rounded=0;" vertex="1" parent="WIyWlLk6GJQsqaUBKTNV-1">
          <mxGeometry x="365" y="300" width="60" height="30" as="geometry" />
        </mxCell>
        <mxCell id="F_i0khBpR1WR50BoNfie-13" value="Loss" style="text;html=1;strokeColor=none;fillColor=none;align=center;verticalAlign=middle;whiteSpace=wrap;rounded=0;" vertex="1" parent="WIyWlLk6GJQsqaUBKTNV-1">
          <mxGeometry x="475" y="300" width="60" height="30" as="geometry" />
        </mxCell>
        <mxCell id="F_i0khBpR1WR50BoNfie-14" value="Accuracy" style="text;html=1;strokeColor=none;fillColor=none;align=center;verticalAlign=middle;whiteSpace=wrap;rounded=0;" vertex="1" parent="WIyWlLk6GJQsqaUBKTNV-1">
          <mxGeometry x="585" y="300" width="60" height="30" as="geometry" />
        </mxCell>
        <mxCell id="F_i0khBpR1WR50BoNfie-23" value="Input Layer" style="text;html=1;strokeColor=none;fillColor=none;align=center;verticalAlign=middle;whiteSpace=wrap;rounded=0;" vertex="1" parent="WIyWlLk6GJQsqaUBKTNV-1">
          <mxGeometry x="145" y="200" width="60" height="30" as="geometry" />
        </mxCell>
        <mxCell id="F_i0khBpR1WR50BoNfie-24" value="Hidden Layer" style="text;html=1;strokeColor=none;fillColor=none;align=center;verticalAlign=middle;whiteSpace=wrap;rounded=0;" vertex="1" parent="WIyWlLk6GJQsqaUBKTNV-1">
          <mxGeometry x="365" y="200" width="60" height="30" as="geometry" />
        </mxCell>
        <mxCell id="F_i0khBpR1WR50BoNfie-25" value="Output Layer" style="text;html=1;strokeColor=none;fillColor=none;align=center;verticalAlign=middle;whiteSpace=wrap;rounded=0;" vertex="1" parent="WIyWlLk6GJQsqaUBKTNV-1">
          <mxGeometry x="585" y="200" width="60" height="30" as="geometry" />
        </mxCell>
        <mxCell id="F_i0khBpR1WR50BoNfie-26" value="" style="endArrow=classic;html=1;rounded=0;exitX=0.086;exitY=0.778;exitDx=0;exitDy=0;exitPerimeter=0;" edge="1" parent="WIyWlLk6GJQsqaUBKTNV-1" source="F_i0khBpR1WR50BoNfie-15">
          <mxGeometry width="50" height="50" relative="1" as="geometry">
            <mxPoint x="470" y="340" as="sourcePoint" />
            <mxPoint x="420" y="340" as="targetPoint" />
          </mxGeometry>
        </mxCell>
        <mxCell id="F_i0khBpR1WR50BoNfie-28" value="" style="endArrow=classic;html=1;rounded=0;exitX=0.086;exitY=0.778;exitDx=0;exitDy=0;exitPerimeter=0;" edge="1" parent="WIyWlLk6GJQsqaUBKTNV-1">
          <mxGeometry width="50" height="50" relative="1" as="geometry">
            <mxPoint x="365" y="340.02" as="sourcePoint" />
            <mxPoint x="308.98" y="340" as="targetPoint" />
          </mxGeometry>
        </mxCell>
        <mxCell id="F_i0khBpR1WR50BoNfie-29" value="&lt;font style=&quot;font-size: 6px&quot;&gt;Back Propagation&lt;/font&gt;" style="text;html=1;strokeColor=none;fillColor=none;align=center;verticalAlign=middle;whiteSpace=wrap;rounded=0;" vertex="1" parent="WIyWlLk6GJQsqaUBKTNV-1">
          <mxGeometry x="310" y="340" width="60" height="30" as="geometry" />
        </mxCell>
        <mxCell id="F_i0khBpR1WR50BoNfie-30" value="&lt;font style=&quot;font-size: 8px&quot;&gt;Forward&lt;/font&gt;" style="text;html=1;strokeColor=none;fillColor=none;align=center;verticalAlign=middle;whiteSpace=wrap;rounded=0;" vertex="1" parent="WIyWlLk6GJQsqaUBKTNV-1">
          <mxGeometry x="200" y="290" width="60" height="30" as="geometry" />
        </mxCell>
        <mxCell id="F_i0khBpR1WR50BoNfie-31" value="&lt;font style=&quot;font-size: 8px&quot;&gt;Forward&lt;/font&gt;" style="text;html=1;strokeColor=none;fillColor=none;align=center;verticalAlign=middle;whiteSpace=wrap;rounded=0;" vertex="1" parent="WIyWlLk6GJQsqaUBKTNV-1">
          <mxGeometry x="310" y="290" width="60" height="30" as="geometry" />
        </mxCell>
        <mxCell id="F_i0khBpR1WR50BoNfie-32" value="&lt;font style=&quot;font-size: 8px&quot;&gt;Forward&lt;/font&gt;" style="text;html=1;strokeColor=none;fillColor=none;align=center;verticalAlign=middle;whiteSpace=wrap;rounded=0;" vertex="1" parent="WIyWlLk6GJQsqaUBKTNV-1">
          <mxGeometry x="420" y="290" width="60" height="30" as="geometry" />
        </mxCell>
        <mxCell id="F_i0khBpR1WR50BoNfie-33" value="&lt;font style=&quot;font-size: 8px&quot;&gt;Forward&lt;/font&gt;" style="text;html=1;strokeColor=none;fillColor=none;align=center;verticalAlign=middle;whiteSpace=wrap;rounded=0;" vertex="1" parent="WIyWlLk6GJQsqaUBKTNV-1">
          <mxGeometry x="530" y="290" width="60" height="30" as="geometry" />
        </mxCell>
        <mxCell id="F_i0khBpR1WR50BoNfie-34" value="&lt;font style=&quot;font-size: 6px&quot;&gt;Back Propagation&lt;/font&gt;" style="text;html=1;strokeColor=none;fillColor=none;align=center;verticalAlign=middle;whiteSpace=wrap;rounded=0;" vertex="1" parent="WIyWlLk6GJQsqaUBKTNV-1">
          <mxGeometry x="420" y="340" width="60" height="30" as="geometry" />
        </mxCell>
      </root>
    </mxGraphModel>
  </diagram>
</mxfile>
